<?xml version="1.0" encoding="UTF-8" standalone="no"?>
<svg xmlns="http://www.w3.org/2000/svg" width="36" height="32" version="1.0" xmlns:xlink="http://www.w3.org/1999/xlink">
 <defs>
  <linearGradient id="lg2"><stop id="s1" stop-color="#F4F4F6" offset="0"/><stop id="s2" stop-color="#FFF" stop-opacity="0" offset="1"/></linearGradient>
  <radialGradient id="rg1" gradientUnits="userSpaceOnUse" cy="333.28" cx="381.42" gradientTransform="matrix(0.05,-3.9575422e-4,3.7428054e-4,0.04171322,-1.145,1.845)" r="316.52"><stop id="s3" stop-color="#F4F4F6" offset="0"/><stop id="s4" stop-color="#ADAFE7" offset="1"/></radialGradient>
  <linearGradient id="lg1" y2="35.937" xlink:href="#lg2" gradientUnits="userSpaceOnUse" x2="39" gradientTransform="matrix(0.2,0,0,0.2,1.8,-1.7480535)" y1="18.173" x1="32.485"/>
  <linearGradient id="lg3" y2="35.937" xlink:href="#lg2" gradientUnits="userSpaceOnUse" x2="39" gradientTransform="matrix(0.2,0,0,0.2,15.28,-2.7479635)" y1="18.173" x1="32.485"/>
 </defs>
 <path id="p1" stroke-linejoin="round" style="color:#000000;" d="m5.2163,28.643c-0.60742-1.2087,1.4942-9.2347,1.4942-9.2347s-2.9192-0.14348-4.4826-0.99129-1.7847-3.5347-1.7709-4.1739c0.021591-0.99741,0.38738-1.4869,1.8262-1.8261,1.4388-0.33913,3.9292,0.46956,3.9292,0.46956s0.096846-2.2956-0.22136-4.4347-1.0305-3.5345-1.0515-4.1217c-0.037056-1.04,1.4511-1.7394,2.2136-1.9826,0.93689-0.29875,4.4121-0.61291,6.4195-0.0522,0.74709,0.20869,1.3143,0.0391,1.8816,1.0956,0.56724,1.0565-0.11374,2.1855,0.38738,3.1304,0.22136,0.41739,0.53957,0.91303,1.1621,0.83477,0.62258-0.0783,1.2313-0.46956,1.3282-1.1478,0.18407-1.2891-0.0011-2.5478,0.16602-3.8608,0.08301-0.65217,0.45002-1.1739,1.2728-1.2522,0.82695-0.0787,2.8362,0.36522,4.9806,1.1478,2.1444,0.7826,3.1343,1.1351,3.5971,1.9826,0.55709,1.0203,0,9.1825,0,9.1825s2.7532-0.53478,4.3165-0.0522c1.5634,0.4826,2.4994,3.2686,2.2919,4.3773-0.20753,1.1087-0.41365,1.2109-1.1297,1.8313-0.5119,0.44347-1.2867,0.32608-2.1583,0.36521-1.3135,0.059-3.099-0.20869-3.099-0.20869s0.26355,6.3476-0.11068,8.8173c-0.13835,0.91303-0.97836,0.98903-1.1068,1.0956-0.28383,0.23558-1.8401,0.95216-3.9292,1.2-2.0891,0.24782-4.1281-0.0546-4.4272-0.2087-0.20958-0.10798-0.37354,0.26087-0.49806-0.7826s0.26287-2.2826,0-3.3913c-0.26286-1.1087-0.93765-1.1739-1.5495-1.1478-0.57631,0.0246-1.4112,0.0522-1.6049,1.2522-0.19369,1.2,0.41505,2.5304,0.22136,3.7565s-0.63606,0.93282-0.99612,1.1478c-0.41505,0.24783-1.5495-0.13043-1.7709-0.20869-1.0405-0.36787-1.0791-0.16956-2.3243-0.73043-1.2452-0.56086-1.313-0.3929-2.6563-0.78259-1.259-0.36522-2.1849-0.26776-2.601-1.0956zm8.6331-7.1477,1.8816-6.2608s-1.4673-1.2477-1.412-2.4738c0.05652-1.2524,1.1902-2.3914,2.7536-2.4305s2.7996,1.2286,2.7955,2.4954c-0.004,1.213-1.4808,2.3568-1.4808,2.3568l2.0476,6.313h-6.5855z" fill-rule="evenodd" stroke="#3c3e4b" stroke-linecap="round" stroke-miterlimit="4" stroke-width="0.9" fill="#3c3e4b"/>
 <path id="p2" stroke-linejoin="round" style="color:#000000;" d="m5.9883,27.799c-0.60742-1.2087,1.4942-9.2347,1.4942-9.2347s-2.9192-0.14348-4.4826-0.99129c-1.5634-0.84782-1.7847-3.5347-1.7709-4.1739,0.021591-0.99742,0.38738-1.4869,1.8262-1.8261,1.4388-0.33912,3.9292,0.46956,3.9292,0.46956s0.096846-2.2956-0.22136-4.4347-1.0305-3.5345-1.0515-4.1217c-0.037056-1.04,1.4511-1.7394,2.2136-1.9826,0.93689-0.29875,4.4121-0.61291,6.4195-0.0522,0.74709,0.2087,1.3143,0.0391,1.8816,1.0956,0.56724,1.0565-0.11374,2.1855,0.38738,3.1304,0.22136,0.41738,0.53957,0.91303,1.1621,0.83477,0.62258-0.0783,1.2313-0.46956,1.3282-1.1478,0.18407-1.2891-0.0011-2.5478,0.16602-3.8608,0.08301-0.65217,0.45002-1.1739,1.2728-1.2522,0.82695-0.0787,2.8362,0.36521,4.9806,1.1478,2.1444,0.7826,3.1343,1.135,3.5971,1.9826,0.55709,1.0203,0,9.1825,0,9.1825s2.7532-0.53478,4.3165-0.0522c1.5634,0.4826,2.4994,3.2686,2.2919,4.3773-0.20752,1.1087-0.41365,1.211-1.1297,1.8313-0.5119,0.44347-1.2867,0.32608-2.1583,0.36521-1.3135,0.059-3.0991-0.20869-3.0991-0.20869s0.26355,6.3476-0.11068,8.8173c-0.13835,0.91303-0.97836,0.98903-1.1068,1.0956-0.28383,0.23557-1.8401,0.95216-3.9292,1.2-2.0891,0.24783-4.1281-0.0546-4.4272-0.20869-0.20958-0.10798-0.37355,0.26087-0.49806-0.7826s0.26287-2.2826,0-3.3913c-0.26286-1.1087-0.93765-1.1739-1.5495-1.1478-0.57631,0.0246-1.4112,0.0522-1.6049,1.2522-0.19369,1.2,0.41505,2.5304,0.22136,3.7565s-0.63606,0.93282-0.99612,1.1478c-0.41505,0.24782-1.5495-0.13043-1.7709-0.20869-1.0405-0.36787-1.0791-0.16956-2.3243-0.73043-1.2452-0.56086-1.313-0.3929-2.6563-0.7826-1.259-0.36521-2.1849-0.26775-2.601-1.0956zm8.6331-7.1477,1.8816-6.2608s-1.4673-1.2477-1.412-2.4738c0.05653-1.2524,1.1902-2.3914,2.7536-2.4305s2.7996,1.2286,2.7955,2.4954c-0.004,1.213-1.4808,2.3568-1.4808,2.3568l2.0476,6.313h-6.5855z" fill-rule="evenodd" stroke="#0d0e11" stroke-linecap="round" stroke-miterlimit="4" stroke-width="0.5" fill="url(#rg1)"/>
 <path id="p3" style="color:#000000;" fill-rule="evenodd" fill="url(#lg1)" d="m7.3118,6.96c-0.30219-1.4415-0.82057-3.1477-0.83723-3.5863-0.029505-0.7769,1.3522-1.1979,1.9594-1.3795,0.746-0.22317,3.5131-0.45785,5.1115-0.039,0.59487,0.15589,1.0465,0.0292,1.4982,0.81845,0.45166,0.78922-1.0131,0.79822-1.8069,1.0497-1.891,0.59908-5.5336,5.0034-5.9249,3.1367z"/>
 <path id="p4" style="color:#000000;" fill-rule="evenodd" fill="url(#lg3)" d="m20.1,5.8586c-0.30218-1.4415,0.065-3.7566,0.04834-4.1952-0.02951-0.7769,1.0685-0.78712,3.0417-0.36471,1.3174,0.28202,2.5292,0.96289,4.1275,1.6862,0.56205,0.25435,0.75134,0.43516,1.203,1.2244,0.45166,0.78921-0.32432,1.5086-1.1181,1.7601-1.891,0.59908-6.9111,1.756-7.3024-0.11072z"/>
</svg>
